<?xml version="1.0" encoding="UTF-8" standalone="no"?>
<!-- Generator: Adobe Illustrator 15.0.0, SVG Export Plug-In . SVG Version: 6.00 Build 0)  -->

<svg
   xmlns:dc="http://purl.org/dc/elements/1.1/"
   xmlns:cc="http://creativecommons.org/ns#"
   xmlns:rdf="http://www.w3.org/1999/02/22-rdf-syntax-ns#"
   xmlns:svg="http://www.w3.org/2000/svg"
   xmlns="http://www.w3.org/2000/svg"
   xmlns:xlink="http://www.w3.org/1999/xlink"
   xmlns:sodipodi="http://sodipodi.sourceforge.net/DTD/sodipodi-0.dtd"
   xmlns:inkscape="http://www.inkscape.org/namespaces/inkscape"
   version="1.1"
   id="Capa_1"
   x="0px"
   y="0px"
   width="800px"
   height="600px"
   viewBox="0 0 800 600"
   enable-background="new 0 0 800 600"
   xml:space="preserve"
   inkscape:version="0.47 r22583"
   sodipodi:docname="logo_oigame_h.svg"><metadata
   id="metadata39"><rdf:RDF><cc:Work
       rdf:about=""><dc:format>image/svg+xml</dc:format><dc:type
         rdf:resource="http://purl.org/dc/dcmitype/StillImage" /></cc:Work></rdf:RDF></metadata><defs
   id="defs37"><inkscape:perspective
     sodipodi:type="inkscape:persp3d"
     inkscape:vp_x="0 : 300 : 1"
     inkscape:vp_y="0 : 1000 : 0"
     inkscape:vp_z="800 : 300 : 1"
     inkscape:persp3d-origin="400 : 200 : 1"
     id="perspective41" /><inkscape:perspective
     id="perspective2855"
     inkscape:persp3d-origin="0.5 : 0.33333333 : 1"
     inkscape:vp_z="1 : 0.5 : 1"
     inkscape:vp_y="0 : 1000 : 0"
     inkscape:vp_x="0 : 0.5 : 1"
     sodipodi:type="inkscape:persp3d" /></defs><sodipodi:namedview
   pagecolor="#ffffff"
   bordercolor="#666666"
   borderopacity="1"
   objecttolerance="10"
   gridtolerance="10"
   guidetolerance="10"
   inkscape:pageopacity="0"
   inkscape:pageshadow="2"
   inkscape:window-width="1280"
   inkscape:window-height="725"
   id="namedview35"
   showgrid="false"
   inkscape:zoom="0.39333333"
   inkscape:cx="438.13559"
   inkscape:cy="300"
   inkscape:window-x="0"
   inkscape:window-y="24"
   inkscape:window-maximized="1"
   inkscape:current-layer="Capa_1" />
<path
   d="m 689.20761,63.488031 c -7.65114,4.094521 -77.04749,78.973339 -113.14595,104.554229 -19.27747,13.65732 -25.1564,16.39206 -104.11099,48.53926 0,0 -5.2633,1.48904 -7.92052,-5.69958 -3.33593,-9.01224 -4.60424,-11.05961 -4.60424,-11.05961 l -84.15179,31.37412 -21.17164,-1.20574 -17.65094,20.35845 -4.32088,19.93267 c 0,0 -31.39707,14.10693 -41.38932,21.32753 -2.50297,1.80926 -13.92407,24.6419 -7.50773,39.67161 7.76924,18.20058 13.81536,36.3038 23.01356,47.67975 11.87383,14.68864 38.6696,16.06915 57.27571,7.27302 10.8658,-5.12434 19.38377,16.88888 19.38377,16.88888 l 55.07465,-18.62889 c 0,0 28.54924,135.0978 80.7056,157.44427 11.02335,4.72927 37.98778,-22.35983 37.98778,-22.35983 0,0 -11.80536,-34.61718 -28.90311,-70.48906 -14.27297,-29.93182 -37.69067,-52.55897 -44.84376,-69.13367 -3.16859,-7.31302 34.34769,-18.03657 34.34769,-18.03657 l -4.88146,-18.46945 c 0,0 128.00116,-50.76131 256.82777,-8.66194 41.19424,13.4518 -57.22919,-283.468333 -80.0142,-271.299449 z"
   id="path3"
   style="fill:#be0411" />
<path
   d="m 339.15229,374.08156 c -4.44133,-0.0402 -7.97957,-1.5992 -10.624,-4.67405 -2.64028,-3.07588 -3.94703,-6.74593 -3.91202,-11.01015 0.035,-4.27245 1.39119,-7.92398 4.07886,-10.95248 2.68456,-3.0491 6.24958,-4.55152 10.69709,-4.51754 3.77096,0.0298 7.19697,1.58891 10.28727,4.66272 3.08411,3.08722 4.61228,6.76654 4.58344,11.02458 -0.0391,4.26937 -1.61878,7.91573 -4.74925,10.95659 -3.13559,3.03058 -6.58939,4.5371 -10.36139,4.51033 z"
   id="path5"
   style="fill:#ffffff" />
<g
   id="g7"
   transform="matrix(0.74867155,-0.17385719,0.17385719,0.74867155,-1325.3414,-22.070075)"
   style="fill:#0000ff">
	<defs
   id="defs9">
		<path
   id="SVGID_1_"
   d="m 603.819,271.432 c 0.109,-14.664 -7.468,-22.063 -22.732,-22.18 -16.52,-0.126 -24.837,7.24 -24.953,22.075 l -0.53,69.406 -25.715,-0.197 0.521,-69.146 c 0.065,-8.197 -2.089,-13.94 -6.449,-17.205 -4.367,-3.262 -9.688,-4.921 -15.968,-4.962 -6.896,-0.056 -12.715,1.644 -17.445,5.096 -4.727,3.46 -7.124,8.852 -7.176,16.194 l -0.527,69.66 -25.73,-0.2 0.851,-111.308 25.719,0.196 -0.095,12.833 c 3.382,-5.035 7.95,-8.719 13.727,-11.032 5.768,-2.306 12.629,-3.431 20.573,-3.368 6.901,0.05 12.9,1.23 18.009,3.543 5.103,2.308 8.792,5.042 11.073,8.198 2.955,-3.468 7.475,-6.222 13.554,-8.282 6.077,-2.046 13.823,-3.031 23.235,-2.959 14.429,0.113 25.703,3.784 33.797,11.003 8.1,7.219 12.107,16.85 12.016,28.904 l -0.562,73.586 -25.715,-0.186 0.522,-69.669 z" />
	</defs>
	<clipPath
   id="SVGID_2_">
		<use
   xlink:href="#SVGID_1_"
   overflow="visible"
   id="use13"
   style="overflow:visible"
   x="0"
   y="0"
   width="800"
   height="600" />
	</clipPath>
	<path
   clip-path="url(#SVGID_2_)"
   d="m 743.459,122.976 c -6.432,2.48 -68.456,54.739 -99.417,71.381 -16.533,8.886 -21.43,10.467 -86.822,28.102 0,0 -4.291,0.661 -5.688,-5.267 -1.751,-7.431 -2.55,-9.169 -2.55,-9.169 l -69.408,16.518 -16.575,-3.018 -15.904,14.327 -5.353,15.293 c 0,0 -26.13,8.056 -34.711,12.774 -2.15,1.182 -13.386,18.068 -9.796,30.544 4.349,15.108 7.347,29.971 13.488,39.838 7.93,12.74 28.918,16.445 44.446,11.326 9.067,-2.979 13.633,15.208 13.633,15.208 l 45.239,-9.308 c 0,0 9.316,109.298 48.258,132.01 8.226,4.804 32.133,-13.92 32.133,-13.92 0,0 -5.929,-28.444 -15.908,-58.396 -8.328,-24.992 -24.581,-45.117 -28.6,-58.884 -1.784,-6.075 28.838,-10.865 28.838,-10.865 l -2.043,-15.039 c 0,0 105.874,-27.521 203.33,18.25 31.163,14.629 -17.438,-229.075 -36.59,-221.705 z"
   id="path15"
   style="fill:#0000ff" />
</g>
<g
   id="g17"
   transform="matrix(0.76252788,-0.09636724,0.09636724,0.76252788,-1291.2719,-56.801789)"
   style="fill:#0000ff">
	<defs
   id="defs19">
		<path
   id="SVGID_3_"
   d="m 659.342,273.086 c 3.157,28.978 22.547,39.247 44.252,37.25 15.364,-1.411 24.629,-4.97 32.119,-9.102 l 5.315,15.007 c -7.245,4.107 -20.036,9.466 -38.813,11.193 -36.337,3.339 -60.263,-18.811 -63.537,-54.416 -3.273,-35.607 15.145,-65.335 49.53,-68.499 38.776,-3.565 51.872,29.173 53.867,50.877 0.402,4.39 0.451,7.581 0.186,10.065 l -82.919,7.625 z m 61.51,-21.148 c -0.991,-13.435 -8.792,-34.114 -32.937,-31.895 -21.949,2.019 -29.399,22.625 -29.74,37.658 l 62.677,-5.763 z" />
	</defs>
	<clipPath
   id="SVGID_4_">
		<use
   xlink:href="#SVGID_3_"
   overflow="visible"
   id="use23"
   style="overflow:visible"
   x="0"
   y="0"
   width="800"
   height="600" />
	</clipPath>
	<path
   clip-path="url(#SVGID_4_)"
   d="m 743.154,122.882 c -6.432,2.481 -68.456,54.739 -99.417,71.381 -16.533,8.885 -21.431,10.467 -86.82,28.101 0,0 -4.293,0.661 -5.688,-5.266 -1.749,-7.431 -2.549,-9.169 -2.549,-9.169 l -69.411,16.517 -16.572,-3.018 -15.907,14.327 -5.353,15.292 c 0,0 -26.13,8.056 -34.712,12.774 -2.149,1.182 -13.385,18.068 -9.796,30.544 4.35,15.108 7.348,29.971 13.489,39.839 7.93,12.74 28.921,16.445 44.449,11.326 9.064,-2.979 13.63,15.207 13.63,15.207 l 45.241,-9.308 c 0,0 9.318,109.299 48.256,132.01 8.229,4.806 32.133,-13.919 32.133,-13.919 0,0 -5.93,-28.444 -15.904,-58.396 -8.333,-24.992 -24.585,-45.116 -28.604,-58.883 -1.784,-6.074 28.837,-10.866 28.837,-10.866 l -2.042,-15.038 c 0,0 105.874,-27.521 203.329,18.249 31.164,14.631 -17.436,-229.073 -36.589,-221.704 z"
   id="path25"
   style="fill:#0000ff" />
</g>
<path
   d="m 48.963549,376.62824 c -11.351863,-0.0882 -20.156092,-3.51562 -26.410547,-10.29782 -6.253757,-6.77584 -9.33478,-16.19034 -9.243766,-28.24279 0.04021,-5.37821 0.952455,-10.4361 2.742367,-15.16381 1.787791,-4.72136 4.271234,-8.79929 7.450321,-12.22742 3.179086,-3.42673 6.983272,-6.12042 11.413246,-8.07401 4.43069,-1.95359 9.305149,-2.91099 14.633255,-2.87288 5.465686,0.0402 10.39659,1.04699 14.798346,3.01187 4.396827,1.96277 8.161496,4.6868 11.28837,8.15938 3.126176,3.47611 5.544712,7.5886 7.26407,12.34524 1.713007,4.7517 2.551169,9.87591 2.510954,15.37264 -0.08886,11.58751 -3.311013,20.83763 -9.673427,27.75175 -6.358173,6.90919 -15.285158,10.32816 -26.773189,10.23785 z m 0.47341,-62.13613 c -6.026585,-0.0452 -10.668925,2.14691 -13.924916,6.56631 -3.258103,4.42081 -4.912554,10.20327 -4.966171,17.33612 -0.118534,15.56595 6.128174,23.39444 18.740104,23.4925 12.471532,0.0924 18.767615,-7.63941 18.886149,-23.20324 0.120645,-16.02666 -6.121831,-24.09715 -18.735166,-24.19169 z"
   id="path27"
   style="fill:#000080" />
<path
   d="m 110.55784,293.54584 c -2.94133,-0.0205 -5.28226,-0.97292 -7.01855,-2.85737 -1.73982,-1.8908 -2.59633,-4.1774 -2.57516,-6.87038 0.0226,-2.80728 0.87908,-5.13904 2.57516,-6.9988 1.69678,-1.86046 4.08286,-2.77764 7.16812,-2.75295 2.65981,0.0148 4.93301,0.97715 6.8097,2.85737 1.87881,1.8901 2.80657,4.23526 2.78471,7.04254 -0.0219,2.69439 -1.02019,4.97111 -2.99566,6.82664 -1.97688,1.85341 -4.22537,2.77129 -6.74832,2.75295 z m -8.67442,7.65846 17.23453,0.13263 -0.57218,74.94843 -17.23382,-0.13265 0.57147,-74.94841 z"
   id="path29"
   style="fill:#000080" />
<path
   d="m 166.97076,393.71107 c 12.49058,-2.35645 18.78526,-9.89919 18.88261,-22.62189 -0.84804,0.8043 -1.72994,1.57543 -2.64641,2.32046 -0.91859,0.74362 -2.0439,1.42445 -3.38016,2.04814 -1.33838,0.63073 -3.02317,1.10555 -5.05437,1.4435 -2.03755,0.32172 -4.5986,0.47552 -7.67821,0.45718 -5.7479,-0.0452 -10.6795,-1.10697 -14.79482,-3.19038 -4.12166,-2.07283 -7.52934,-4.91044 -10.23644,-8.49662 -2.70426,-3.59181 -4.70795,-7.76216 -6.00117,-12.50962 -1.29746,-4.75029 -1.92185,-9.87592 -1.88022,-15.37618 0.0388,-5.02967 0.94822,-9.78984 2.73672,-14.27978 1.78568,-4.48924 4.19786,-8.39855 7.23797,-11.70675 3.03798,-3.31243 6.62838,-5.92216 10.77968,-7.81719 4.14637,-1.89997 8.67229,-2.83127 13.58061,-2.79317 5.04661,0.0402 8.96297,0.71469 11.75755,2.01991 2.79317,1.30875 4.95136,2.79176 6.48305,4.43916 l 0.0444,-5.78882 17.23593,0.1291 -0.48469,63.53519 c -0.0444,5.62019 -0.81982,10.91374 -2.32894,15.86792 -1.50911,4.96477 -3.71669,9.36017 -6.61709,13.20457 -2.90252,3.83875 -6.49928,7.05805 -10.79239,9.6579 -4.29664,2.60197 -9.24941,4.28958 -14.86114,5.06919 l -1.98252,-15.61182 z m 19.61847,-63.89711 c -0.12205,-2.58362 -0.66672,-4.81519 -1.63116,-6.69964 -0.96868,-1.89151 -2.14974,-3.39498 -3.53961,-4.52523 -1.39411,-1.12532 -2.89617,-1.95853 -4.50335,-2.49897 -1.6086,-0.54113 -3.11278,-0.8177 -4.51183,-0.82969 -7.14554,-0.0536 -12.31278,1.90068 -15.49611,5.86995 -3.18332,3.9728 -4.8039,9.6572 -4.86034,17.05179 -0.0586,7.75299 1.29252,13.81555 4.06522,18.18415 2.76777,4.36507 7.09968,6.56771 12.98516,6.61216 5.32387,0.0444 9.53726,-1.0357 12.63802,-3.24823 3.09867,-2.21181 4.66705,-5.3662 4.69879,-9.47517 l 0.15521,-20.44112 z"
   id="path31"
   style="fill:#000080" />
<path
   d="m 263.00303,370.89375 c -1.42445,1.74758 -3.96786,3.36816 -7.6394,4.86176 -3.66943,1.49359 -8.11069,2.21252 -13.31675,2.17936 -3.94034,-0.0318 -7.62953,-0.64555 -11.07248,-1.84212 -3.43589,-1.19515 -6.44848,-2.94626 -9.03493,-5.25262 -2.58645,-2.30001 -4.60424,-5.06424 -6.05903,-8.28778 -1.45338,-3.22918 -2.16313,-6.89437 -2.13068,-10.99205 0.0635,-8.42183 3.03163,-14.83504 8.90512,-19.24103 5.87418,-4.39894 13.52629,-6.56137 22.9563,-6.49293 4.36154,0.0304 7.9837,0.5616 10.86082,1.57755 2.87925,1.01667 5.08189,2.29225 6.62276,3.82394 0.024,-3.19955 -0.34854,-5.77259 -1.11261,-7.73183 -0.76691,-1.95995 -1.85906,-3.47823 -3.26729,-4.55415 -1.41174,-1.08157 -3.21859,-1.83577 -5.41488,-2.26684 -2.19912,-0.42614 -4.64728,-0.65403 -7.34309,-0.6759 -3.26869,-0.0233 -6.07738,0.39227 -8.42607,1.25019 -2.3508,0.86285 -4.45326,1.9296 -6.30737,3.20025 l -7.69302,-11.03791 c 2.82068,-2.52436 6.34759,-4.46384 10.57297,-5.81845 4.23031,-1.35319 8.9432,-2.00721 14.1542,-1.97405 9.70941,0.0804 17.50121,2.56457 23.37539,7.46514 5.87419,4.9055 8.77812,11.56776 8.71462,19.99523 l -0.36757,48.44263 -17.0271,-0.13547 0.0501,-6.49292 z m -0.0226,-24.74976 c 0.006,-0.9327 -0.4473,-1.84635 -1.36448,-2.72825 -0.91648,-0.88896 -2.08412,-1.65727 -3.49869,-2.312 -1.41317,-0.64837 -2.9004,-1.16058 -4.46244,-1.52746 -1.55991,-0.36264 -3.04785,-0.55101 -4.46595,-0.56018 -12.07433,-0.0896 -18.13971,4.01795 -18.20391,12.32549 -0.0275,3.51279 1.54862,6.36029 4.727,8.55305 3.17767,2.18571 6.96915,3.29762 11.37515,3.3329 1.41881,0.01 3.0154,-0.15381 4.79685,-0.49175 1.77439,-0.33795 3.48388,-0.82406 5.12069,-1.44774 1.63752,-0.63426 3.02951,-1.41387 4.17246,-2.34233 1.14365,-0.92707 1.71936,-2.03332 1.72994,-3.32161 l 0.0734,-9.48012 z"
   id="path33"
   style="fill:#000080" />
<path
   d="m -259.02838,1.1504354 c -8.33511,4.46055 -83.93513,86.0331396 -123.26059,113.9008346 -21.00078,14.87821 -27.40525,17.85742 -113.41796,52.87841 0,0 -5.73382,1.62215 -8.62858,-6.20909 -3.63414,-9.81789 -5.01583,-12.04829 -5.01583,-12.04829 l -91.67452,34.1788 -23.06427,-1.31352 -19.22884,22.17839 -4.70714,21.71454 c 0,0 -34.2038,15.36801 -45.08931,23.2341 -2.72672,1.971 -15.16881,26.84475 -8.17888,43.21804 8.46377,19.82761 15.05038,39.54917 25.07085,51.94207 12.93529,16.00172 42.12646,17.50564 62.39586,7.92319 11.83714,-5.58243 21.11657,18.39865 21.11657,18.39865 l 59.99803,-20.29421 c 0,0 31.10139,147.17482 87.92026,171.51895 12.00878,5.15204 41.38368,-24.35868 41.38368,-24.35868 0,0 -12.8607,-37.71177 -31.48689,-76.79041 -15.5489,-32.60756 -41.06002,-57.25746 -48.85256,-75.31385 -3.45184,-7.96677 37.41819,-19.64894 37.41819,-19.64894 l -5.31783,-20.12053 c 0,0 139.44378,-55.2991 279.78681,-9.43627 44.87678,14.65432 -62.34518,-308.808905 -87.16705,-295.5521846 z"
   id="path3-9"
   style="fill:#800000" /><text
   xml:space="preserve"
   style="font-size:21.92138863px;font-style:normal;font-variant:normal;font-weight:normal;font-stretch:normal;text-align:center;line-height:125%;writing-mode:lr-tb;text-anchor:middle;fill:#ffffff;fill-opacity:1;stroke:none;font-family:Futura Lt BT;-inkscape-font-specification:Futura Lt BT"
   x="432.66855"
   y="467.96313"
   id="text2869"
   sodipodi:linespacing="125%"
   transform="matrix(0.95646361,-0.29185162,0.29185162,0.95646361,0,0)"><tspan
     sodipodi:role="line"
     id="tspan2871"
     x="432.66855"
     y="467.96313"
     style="font-size:219.21391296px;font-style:normal;font-variant:normal;font-weight:bold;font-stretch:normal;fill:#ffffff;font-family:AlMohanad;-inkscape-font-specification:AlMohanad Bold">me</tspan></text>
<text
   xml:space="preserve"
   style="font-size:40px;font-style:normal;font-variant:normal;font-weight:normal;font-stretch:normal;text-align:center;line-height:125%;writing-mode:lr-tb;text-anchor:middle;fill:#000000;fill-opacity:1;stroke:none;font-family:Futura Lt BT;-inkscape-font-specification:Futura Lt BT"
   x="-643.22034"
   y="-185.59322"
   id="text2873"
   sodipodi:linespacing="125%"><tspan
     sodipodi:role="line"
     id="tspan2875"
     x="-643.22034"
     y="-185.59322">listen up</tspan></text>
</svg>