<?xml version="1.0" encoding="utf-8"?>
<!-- Generator: Adobe Illustrator 15.0.0, SVG Export Plug-In . SVG Version: 6.00 Build 0)  -->
<!DOCTYPE svg PUBLIC "-//W3C//DTD SVG 1.1//EN" "http://www.w3.org/Graphics/SVG/1.1/DTD/svg11.dtd">
<svg version="1.1" id="Capa_1" xmlns="http://www.w3.org/2000/svg" xmlns:xlink="http://www.w3.org/1999/xlink" x="0px" y="0px"
	 width="800px" height="600px" viewBox="0 0 800 600" enable-background="new 0 0 800 600" xml:space="preserve">
<path fill="#BE0411" d="M702.963,121.247c-7.996,3.084-85.107,68.054-123.597,88.744c-20.554,11.046-26.645,13.012-107.938,34.937
	c0,0-5.339,0.821-7.071-6.547c-2.176-9.238-3.17-11.4-3.17-11.4l-86.293,20.535l-20.604-3.751l-19.774,17.813l-6.654,19.013
	c0,0-32.487,10.015-43.156,15.88c-2.673,1.469-16.642,22.463-12.176,37.974c5.405,18.783,9.133,37.261,16.769,49.528
	c9.856,15.838,35.953,20.445,55.259,14.081c11.271-3.704,16.946,18.906,16.946,18.906l56.245-11.572
	c0,0,11.583,135.884,59.992,164.118c10.229,5.974,39.947-17.304,39.947-17.304s-7.371-35.362-19.772-72.599
	c-10.358-31.072-30.563-56.092-35.561-73.207c-2.218-7.553,35.854-13.508,35.854-13.508l-2.542-18.696
	c0,0,131.624-34.215,252.785,22.688C787.197,415.064,726.773,112.085,702.963,121.247z"/>
<path fill="#FFFFFF" d="M292.535,391.751c-5.365-0.05-9.636-1.933-12.827-5.644c-3.188-3.714-4.766-8.145-4.724-13.294
	c0.042-5.158,1.68-9.567,4.925-13.222c3.242-3.683,7.545-5.496,12.912-5.455c4.556,0.036,8.69,1.919,12.423,5.631
	c3.723,3.727,5.566,8.169,5.532,13.311c-0.045,5.153-1.955,9.556-5.735,13.226C301.256,389.963,297.087,391.78,292.535,391.751z"/>
<g>
	<defs>
		<path id="SVGID_1_" d="M528.896,306.058c0.135-18.231-9.288-27.43-28.262-27.576c-20.539-0.157-30.878,9.001-31.022,27.444
			l-0.659,86.288l-31.97-0.246l0.648-85.964c0.079-10.191-2.598-17.331-8.021-21.389c-5.428-4.055-12.044-6.118-19.851-6.169
			c-8.574-0.07-15.806,2.043-21.687,6.336c-5.876,4.301-8.858,11.004-8.921,20.132l-0.656,86.603l-31.99-0.248l1.059-138.381
			l31.974,0.244l-0.118,15.955c4.205-6.259,9.884-10.839,17.063-13.716c7.17-2.866,15.703-4.265,25.58-4.188
			c8.58,0.063,16.038,1.53,22.389,4.406c6.344,2.868,10.932,6.268,13.768,10.192c3.671-4.311,9.292-7.735,16.847-10.296
			c7.559-2.544,17.188-3.769,28.89-3.679c17.938,0.14,31.952,4.704,42.016,13.679c10.071,8.975,15.053,20.949,14.939,35.934
			l-0.699,91.484l-31.97-0.23L528.896,306.058z"/>
	</defs>
	<clipPath id="SVGID_2_">
		<use xlink:href="#SVGID_1_"  overflow="visible"/>
	</clipPath>
	<path clip-path="url(#SVGID_2_)" fill="#FFFFFF" d="M702.498,121.492c-7.996,3.084-85.106,68.053-123.596,88.744
		c-20.554,11.046-26.646,13.012-107.94,34.937c0,0-5.336,0.821-7.07-6.548c-2.177-9.238-3.17-11.399-3.17-11.399l-86.291,20.535
		l-20.606-3.751l-19.773,17.812l-6.654,19.013c0,0-32.485,10.016-43.157,15.88c-2.673,1.469-16.639,22.463-12.176,37.975
		c5.407,18.782,9.134,37.26,16.77,49.527c9.856,15.84,35.951,20.446,55.257,14.081c11.272-3.704,16.948,18.907,16.948,18.907
		l56.242-11.571c0,0,11.583,135.882,59.995,164.118c10.227,5.972,39.947-17.306,39.947-17.306s-7.369-35.362-19.775-72.599
		c-10.354-31.07-30.561-56.091-35.559-73.207c-2.218-7.551,35.854-13.508,35.854-13.508l-2.54-18.696
		c0,0,131.623-34.214,252.784,22.689C786.731,415.31,726.309,112.33,702.498,121.492z"/>
</g>
<g>
	<defs>
		<path id="SVGID_3_" d="M597.923,308.114c3.925,36.027,28.032,48.793,55.016,46.311c19.102-1.755,30.618-6.178,39.929-11.315
			l6.609,18.658c-9.009,5.105-24.907,11.767-48.254,13.915c-45.175,4.151-74.92-23.387-78.989-67.651
			c-4.071-44.268,18.827-81.227,61.577-85.159c48.208-4.433,64.487,36.267,66.967,63.251c0.502,5.458,0.562,9.426,0.232,12.514
			L597.923,308.114z M674.393,281.822c-1.231-16.703-10.931-42.412-40.948-39.653c-27.287,2.51-36.551,28.127-36.973,46.817
			L674.393,281.822z"/>
	</defs>
	<clipPath id="SVGID_4_">
		<use xlink:href="#SVGID_3_"  overflow="visible"/>
	</clipPath>
	<path clip-path="url(#SVGID_4_)" fill="#FFFFFF" d="M702.12,121.376c-7.997,3.084-85.108,68.053-123.598,88.743
		c-20.554,11.046-26.644,13.012-107.938,34.937c0,0-5.338,0.821-7.071-6.548c-2.176-9.238-3.169-11.399-3.169-11.399l-86.295,20.535
		l-20.603-3.751l-19.774,17.812l-6.654,19.013c0,0-32.487,10.016-43.157,15.88c-2.673,1.469-16.639,22.463-12.177,37.974
		c5.405,18.783,9.134,37.261,16.77,49.528c9.855,15.838,35.953,20.445,55.259,14.081c11.27-3.704,16.946,18.906,16.946,18.906
		l56.245-11.571c0,0,11.583,135.883,59.992,164.117c10.229,5.975,39.947-17.303,39.947-17.303s-7.37-35.363-19.772-72.6
		c-10.358-31.072-30.563-56.092-35.561-73.206c-2.218-7.554,35.854-13.509,35.854-13.509l-2.542-18.696
		c0,0,131.625-34.215,252.785,22.688C786.354,415.193,725.931,112.214,702.12,121.376z"/>
</g>
<path fill="#010002" d="M78.929,200.182c-20.004-0.156-35.519-6.195-46.539-18.146c-11.018-11.939-16.447-28.529-16.288-49.767
	c0.072-9.477,1.68-18.391,4.834-26.72c3.15-8.32,7.526-15.505,13.125-21.547c5.604-6.038,12.308-10.785,20.114-14.227
	c7.807-3.443,16.396-5.13,25.784-5.062c9.632,0.07,18.322,1.845,26.076,5.306c7.75,3.46,14.385,8.26,19.892,14.379
	c5.511,6.125,9.772,13.373,12.8,21.753c3.02,8.374,4.495,17.403,4.424,27.088c-0.157,20.419-5.835,36.719-17.044,48.903
	C114.904,194.317,99.172,200.341,78.929,200.182z M79.765,90.69c-10.622-0.08-18.802,3.784-24.538,11.572
	c-5.742,7.789-8.658,17.979-8.751,30.547c-0.21,27.43,10.796,41.223,33.02,41.397c21.979,0.163,33.071-13.461,33.28-40.887
	C112.99,105.077,101.988,90.857,79.765,90.69z"/>
<path fill="#010002" d="M187.466,53.78c-5.183-0.036-9.309-1.714-12.368-5.035c-3.063-3.331-4.572-7.361-4.539-12.106
	c0.041-4.948,1.551-9.056,4.539-12.333c2.991-3.278,7.194-4.896,12.632-4.852c4.686,0.027,8.692,1.722,12.001,5.036
	c3.308,3.331,4.944,7.463,4.906,12.41c-0.038,4.749-1.799,8.76-5.277,12.03C195.874,52.195,191.911,53.812,187.466,53.78z
	 M172.183,67.276l30.367,0.233l-1.006,132.07l-30.37-0.235L172.183,67.276z"/>
<path fill="#010002" d="M286.875,230.285c22.01-4.152,33.1-17.445,33.272-39.864c-1.494,1.416-3.049,2.777-4.662,4.089
	c-1.621,1.31-3.604,2.51-5.956,3.61c-2.359,1.111-5.327,1.949-8.906,2.544c-3.592,0.567-8.102,0.838-13.532,0.806
	c-10.127-0.08-18.817-1.951-26.071-5.623c-7.261-3.653-13.266-8.652-18.036-14.973c-4.768-6.328-8.296-13.678-10.575-22.043
	c-2.286-8.372-3.385-17.403-3.313-27.096c0.068-8.863,1.672-17.251,4.823-25.162c3.146-7.911,7.397-14.8,12.752-20.629
	c5.354-5.837,11.68-10.437,18.997-13.775c7.305-3.348,15.28-4.99,23.928-4.921c8.893,0.07,15.793,1.259,20.721,3.559
	c4.919,2.307,8.722,4.919,11.423,7.824l0.076-10.202l30.372,0.228l-0.854,111.958c-0.077,9.903-1.444,19.229-4.104,27.962
	c-2.658,8.749-6.548,16.493-11.659,23.266c-5.116,6.766-11.454,12.438-19.02,17.021c-7.57,4.585-16.297,7.56-26.186,8.932
	L286.875,230.285z M321.445,117.689c-0.216-4.553-1.176-8.485-2.876-11.807c-1.706-3.333-3.788-5.98-6.235-7.973
	c-2.457-1.983-5.104-3.452-7.936-4.404c-2.836-0.953-5.487-1.441-7.951-1.461c-12.592-0.095-21.699,3.35-27.306,10.343
	c-5.611,7.001-8.467,17.019-8.565,30.048c-0.105,13.663,2.278,24.345,7.162,32.043c4.878,7.691,12.512,11.572,22.881,11.651
	c9.384,0.078,16.808-1.826,22.271-5.725c5.459-3.898,8.222-9.457,8.281-16.696L321.445,117.689z"/>
<path fill="#010002" d="M456.096,190.078c-2.51,3.079-6.991,5.936-13.46,8.567c-6.468,2.631-14.293,3.898-23.465,3.839
	c-6.946-0.055-13.447-1.137-19.511-3.245c-6.057-2.106-11.363-5.192-15.92-9.257c-4.56-4.053-8.114-8.923-10.677-14.604
	c-2.563-5.689-3.814-12.148-3.757-19.369c0.114-14.84,5.342-26.142,15.693-33.905c10.351-7.751,23.837-11.562,40.451-11.44
	c7.686,0.053,14.07,0.99,19.14,2.779c5.07,1.792,8.955,4.04,11.668,6.74c0.044-5.638-0.612-10.173-1.958-13.625
	c-1.354-3.454-3.276-6.129-5.76-8.024c-2.487-1.905-5.672-3.234-9.541-3.995c-3.873-0.75-8.188-1.153-12.94-1.19
	c-5.759-0.042-10.709,0.69-14.845,2.203c-4.145,1.521-7.85,3.4-11.117,5.639l-13.556-19.45c4.97-4.448,11.187-7.865,18.632-10.252
	c7.453-2.385,15.758-3.538,24.938-3.479c17.109,0.143,30.843,4.519,41.193,13.154c10.349,8.645,15.47,20.383,15.355,35.234
	l-0.648,85.361l-30.002-0.239L456.096,190.078z M456.056,146.464c0.01-1.644-0.786-3.253-2.401-4.808
	c-1.617-1.566-3.675-2.919-6.165-4.074c-2.493-1.143-5.11-2.046-7.863-2.692c-2.749-0.639-5.372-0.97-7.872-0.987
	c-21.273-0.157-31.963,7.081-32.075,21.719c-0.049,6.19,2.729,11.208,8.33,15.071c5.6,3.853,12.28,5.811,20.041,5.873
	c2.503,0.017,5.316-0.271,8.453-0.866c3.127-0.595,6.141-1.453,9.026-2.552c2.885-1.118,5.336-2.491,7.35-4.126
	c2.015-1.634,3.031-3.583,3.051-5.854L456.056,146.464z"/>
</svg>
